<svg version="1.1" viewBox="64 111 380 312" xmlns="http://www.w3.org/2000/svg" style="max-height: 500px" width="380" height="312"><path fill-rule="evenodd" fill="#a37ddc" stroke="none" d="M 112 137.014 C 112 139.949, 177.245 139.687, 177.810 136.750 C 178.125 135.112, 176.033 135, 145.073 135 C 112.592 135, 112 135.036, 112 137.014 M 232.907 147.188 C 228.833 150.041, 222.968 154.428, 219.874 156.938 C 216.780 159.447, 210.571 164.362, 206.076 167.859 C 195.135 176.372, 195.711 175.069, 189.377 205.609 C 181.904 241.638, 181.887 241.858, 186.139 245.834 C 189.658 249.124, 220.413 264.011, 223.638 263.985 C 229.206 263.939, 226.980 261.961, 213.705 255.160 C 194.399 245.269, 188.590 241.284, 188.174 237.647 C 187.807 234.442, 187.911 234.341, 199 227.130 C 203.125 224.447, 212.812 216.458, 220.527 209.376 C 248.082 184.082, 247.338 184.256, 265.572 198.886 C 276.303 207.496, 279.268 209.273, 280.181 207.641 C 281.407 205.451, 283 206.477, 283 209.458 C 283 211.393, 284.554 212.600, 291.986 216.439 C 300.806 220.994, 303.694 223.750, 302.608 226.578 C 301.360 229.830, 304.229 227.696, 305.638 224.324 C 308.074 218.494, 306.722 211.481, 303.562 213.551 C 300.299 215.689, 299.676 213.532, 302.110 208.528 C 304.526 203.561, 304.554 203.968, 300.891 190.734 C 296.427 174.606, 295.402 172.932, 294.486 180.269 C 293.828 185.536, 293.994 188.782, 295.616 202.250 C 296.262 207.615, 294.644 208.802, 292.892 204.250 C 288.078 191.747, 286.311 179.204, 288.493 173.019 C 290.336 167.795, 290.887 168.553, 280.480 161.986 C 275.698 158.969, 269.697 154.946, 267.143 153.046 C 250.931 140.984, 243.564 139.724, 232.907 147.188 M 283 149.358 C 283 151.104, 295.522 157.155, 297.098 156.171 C 299.042 154.957, 300.292 155.968, 299.557 158.160 C 299.309 158.897, 300.489 160.593, 302.178 161.929 L 305.248 164.358 304.521 161.929 C 303.823 159.600, 303.854 159.580, 305.285 161.458 C 306.106 162.535, 306.607 163.885, 306.399 164.458 C 305.677 166.447, 309.762 177.649, 310.518 175.750 C 310.901 174.787, 310.946 173.302, 310.618 172.448 C 310.277 171.558, 310.445 171.157, 311.011 171.507 C 311.555 171.843, 312 171.191, 312 170.059 C 312 167.287, 298.535 150.377, 295.729 149.625 C 293.332 148.982, 283 148.766, 283 149.358 M 291.904 170.606 C 288.838 177.334, 288.789 177.665, 289.898 184.370 C 291.429 193.624, 292.688 195.482, 292.201 187.765 C 291.943 183.690, 292.509 178.530, 293.820 173.001 C 296.338 162.384, 295.900 161.837, 291.904 170.606 M 302.568 179 C 303.915 183.818, 304.959 186, 305.916 186 C 307.730 186, 307.722 184.501, 305.887 180.500 C 304.878 178.300, 304.034 177.175, 304.011 178 C 303.974 179.333, 303.853 179.333, 302.919 178 C 302.119 176.857, 302.035 177.095, 302.568 179 M 118 250.500 L 118 318 137.500 318 L 157 318 157 286 C 157 268.301, 157.392 254, 157.878 254 C 158.361 254, 161.398 257.033, 164.628 260.739 C 167.858 264.446, 171.523 268.649, 172.773 270.079 C 174.023 271.510, 175.696 273.540, 176.491 274.590 C 179.127 278.074, 178.050 274.753, 175.004 270.006 C 169.718 261.768, 171.847 246.018, 178.250 246.002 C 178.662 246.001, 179.010 243.188, 179.022 239.750 C 179.034 236.313, 179.929 229.491, 181.013 224.592 L 182.982 215.684 179.262 211.092 C 177.215 208.566, 175.082 206.011, 174.521 205.414 C 173.959 204.817, 169.450 199.536, 164.500 193.679 L 155.500 183.028 136.750 183.014 L 118 183 118 250.500 M 313.001 188.998 C 312.261 192.080, 311.391 193.742, 310.731 193.334 C 310.058 192.918, 309.896 193.286, 310.294 194.324 C 311.658 197.878, 312.180 205.794, 311.175 207.673 C 310.532 208.875, 310.393 212.269, 310.815 216.485 L 311.500 223.343 314.750 219.637 L 318 215.930 318.011 203.715 C 318.017 196.997, 318.301 189.813, 318.642 187.750 C 319.733 181.148, 314.612 182.281, 313.001 188.998 M 323.033 184.750 C 323.696 199.668, 334.778 221.725, 337.709 213.960 C 339.214 209.973, 342.106 210.310, 343.510 214.637 C 344.066 216.349, 345.938 219.074, 347.672 220.693 C 353.815 226.432, 353.090 239.154, 346.372 243.484 C 343.707 245.201, 343.149 246.290, 342.603 250.836 C 341.843 257.165, 340.375 260.250, 335.598 265.555 C 333.645 267.725, 332.036 269.791, 332.023 270.146 C 332.010 270.501, 329.677 272.282, 326.837 274.105 L 321.674 277.418 324.942 278.265 C 329.811 279.526, 332.338 278.843, 332.983 276.090 C 334.625 269.083, 342.658 268.356, 345.260 274.979 L 346.839 279 352.709 279 C 406.174 279, 414.128 194.662, 361.566 185.082 C 354.890 183.865, 322.982 183.590, 323.033 184.750 M 321.669 199.397 C 321.301 202.082, 321 207.496, 321 211.427 L 321 218.575 316.145 223.357 C 311.715 227.721, 310.435 228.357, 301.522 230.620 C 286.766 234.367, 284.831 235.516, 283.194 241.500 C 278.918 257.135, 278.976 257, 276.500 257 C 273.967 257, 271 254.637, 271 252.620 C 271 251.939, 270.354 250.509, 269.564 249.441 C 268.442 247.924, 268.545 249.357, 270.038 256 C 271.089 260.675, 271.960 264.776, 271.974 265.113 C 271.988 265.451, 274.802 266.984, 278.227 268.521 C 281.651 270.058, 286.716 273.455, 289.480 276.070 L 294.507 280.824 304.699 278.960 C 319.268 276.296, 325.770 272.591, 333.454 262.575 C 338.375 256.161, 339.462 253.070, 336.045 255.204 C 333.026 257.090, 332.551 255.562, 333.893 248.279 C 334.923 242.688, 334.900 241.395, 333.755 240.534 C 332.998 239.965, 331.128 238.503, 329.598 237.284 L 326.817 235.068 328.522 229.934 L 330.227 224.800 326.526 210.650 C 324.490 202.867, 322.715 196.053, 322.582 195.507 C 322.448 194.962, 322.037 196.712, 321.669 199.397 M 306.194 202.040 C 306.072 203.636, 305.505 206.171, 304.934 207.673 C 303.905 210.380, 303.914 210.388, 305.948 208.547 C 307.224 207.392, 308 205.448, 308 203.404 C 308 199.269, 306.492 198.130, 306.194 202.040 M 279.609 217.893 C 278.860 223.536, 280.458 227, 283.810 227 C 285.087 227, 285.064 226.728, 283.655 225.171 C 282.745 224.165, 281.968 221.803, 281.930 219.921 C 281.794 213.335, 280.378 212.096, 279.609 217.893 M 340.803 220 C 341.186 222.475, 341.436 227.113, 341.358 230.307 C 341.223 235.826, 341.305 236.034, 343.005 234.495 C 344.661 232.997, 344.688 232.417, 343.373 226.688 C 341.391 218.058, 339.902 214.182, 340.803 220 M 259.535 222.104 C 254.982 226.101, 254.553 232.127, 258.488 236.804 C 261.199 240.025, 264.655 241.460, 265.327 239.644 C 265.635 238.810, 266.109 238.839, 267.075 239.750 C 272.719 245.075, 284.861 233.050, 279.737 227.210 C 278.912 226.270, 277.950 224.556, 277.599 223.402 C 275.990 218.107, 264.988 217.316, 259.535 222.104 M 216.890 222.632 C 215.705 224.061, 216.095 224.749, 220.018 228.149 L 224.500 232.033 220.526 235.394 C 217.063 238.321, 216.725 238.963, 217.898 240.377 C 219.825 242.699, 221.238 242.405, 224.500 239 C 228.051 235.294, 228.355 235.294, 232.304 238.995 C 235.913 242.378, 237.205 242.663, 239.018 240.478 C 240.080 239.198, 239.677 238.433, 236.494 235.681 L 232.706 232.407 236.853 228.858 C 241.361 225, 241.786 223.897, 239.501 222.001 C 238.261 220.972, 237.225 221.394, 233.500 224.446 L 228.999 228.135 226.160 226.114 C 224.600 225.003, 222.745 223.397, 222.039 222.547 C 220.384 220.553, 218.591 220.583, 216.890 222.632 M 262.573 225.336 C 259.344 228.565, 259.308 231.399, 262.455 234.545 C 268.981 241.072, 280.025 233.147, 274.250 226.080 C 271.399 222.592, 265.681 222.228, 262.573 225.336 M 302.340 239.849 C 288.226 251.073, 286.338 255.101, 291.051 263.944 C 300.003 280.740, 309.518 282.328, 308.273 266.818 C 307.537 257.648, 310.068 255.555, 320.687 256.550 C 334.009 257.798, 333.546 250.712, 319.691 241.288 C 310.412 234.976, 308.651 234.830, 302.340 239.849 M 300.086 243.995 C 288.695 253.799, 288.064 255.628, 293.114 264.193 C 301.534 278.474, 307.279 279.569, 306.281 266.703 C 305.566 257.486, 308.874 254.500, 319.801 254.500 C 331.524 254.500, 331.239 251.731, 318.601 242.856 C 309.723 236.621, 308.571 236.692, 300.086 243.995 M 306.899 242.948 C 306.005 247.849, 306.605 249.502, 309.296 249.547 C 312.493 249.601, 313.463 248.599, 313.847 244.847 C 314.094 242.428, 307.332 240.579, 306.899 242.948 M 179.085 251.641 C 173.706 257.751, 173.850 259.620, 180.566 270.932 C 183.627 276.088, 187.895 283.814, 190.051 288.102 C 197.347 302.612, 199.385 303.923, 221.139 308.114 C 235.196 310.822, 242.306 308.429, 263 294.026 C 264.375 293.069, 267.525 291.160, 270 289.784 C 275.896 286.507, 280.605 283.805, 285.399 280.949 L 289.298 278.627 285.408 275.361 C 279.553 270.446, 277.605 270.315, 271.418 274.423 C 267.925 276.742, 263.600 278.487, 258.802 279.514 C 218.233 288.197, 218.185 288.195, 200.863 276.697 C 186.019 266.845, 180.378 258.816, 184.500 253.411 C 187.676 249.248, 187.326 247, 183.503 247 C 183.320 247, 181.332 249.088, 179.085 251.641 M 191.665 254.840 C 186.498 257.963, 186.951 260.763, 193.589 266.732 C 204.082 276.169, 215.358 283.232, 220.757 283.751 C 229.801 284.620, 262.528 277.319, 269.549 272.867 L 274.202 269.916 271.601 267.506 C 270.162 266.173, 269 264, 269 262.644 L 269 260.192 263.989 262.096 C 257.969 264.384, 254.146 264.463, 243.157 262.529 C 234.940 261.083, 234.743 261.097, 230.140 263.429 C 219.077 269.035, 214.871 268.756, 208.500 261.995 C 203.147 256.314, 194.974 252.840, 191.665 254.840 M 294.490 255.016 C 293.880 256.003, 294.655 256.404, 296.472 256.044 C 297.007 255.939, 296.640 256.741, 295.657 257.827 C 293.613 260.085, 294.262 260.727, 298.452 260.594 C 303.100 260.446, 302.960 254.674, 298.299 254.294 C 296.539 254.150, 294.824 254.475, 294.490 255.016 M 338.200 274.200 C 336.504 275.896, 336.703 276.689, 338.972 277.282 C 340.370 277.648, 341.134 278.986, 341.597 281.881 C 341.956 284.126, 342.587 285.755, 342.999 285.500 C 343.746 285.039, 342.752 278.073, 341.464 274.750 C 340.667 272.693, 339.845 272.555, 338.200 274.200 M 335.473 280.044 C 334.332 281.890, 336.115 298.285, 337.325 297.075 C 338.883 295.517, 340.031 295.757, 339.362 297.500 C 339.045 298.325, 338.133 299, 337.334 299 C 336.535 299, 336.141 299.419, 336.457 299.931 C 336.774 300.443, 336.506 301.187, 335.862 301.585 C 335.131 302.037, 334.959 301.876, 335.405 301.155 C 335.797 300.520, 335.679 300, 335.142 300 C 334.606 300, 333.940 300.563, 333.662 301.250 C 333.361 301.997, 333.126 301.795, 333.079 300.750 C 333.036 299.788, 333.450 299, 334 299 C 334.550 299, 335 298.325, 335 297.500 C 335 296.675, 334.197 296, 333.215 296 C 331.699 296, 331.435 296.891, 331.465 301.913 C 331.491 306.369, 331.793 307.583, 332.691 306.840 C 333.345 306.298, 333.640 305.099, 333.346 304.177 C 332.890 302.745, 332.967 302.719, 333.874 304 C 338.100 309.964, 343.565 286.578, 339.488 279.980 C 338.689 278.688, 336.287 278.726, 335.473 280.044 M 301.155 281.557 C 295.950 282.508, 293.322 282.593, 292.133 281.851 C 290.814 281.027, 288.646 281.841, 281.978 285.663 L 273.500 290.522 273.431 296.233 C 273.350 302.855, 272.223 304.493, 264.212 309.632 C 256.900 314.322, 234.621 325.348, 228.193 327.457 C 221.862 329.535, 220.642 333.785, 226.546 333.196 C 229.872 332.864, 235 336.118, 235 338.560 C 235 340.599, 259.519 354.815, 260.809 353.524 C 261.064 353.270, 258.711 350.295, 255.581 346.914 C 248.373 339.129, 248.340 336.831, 255.368 332.500 C 268.987 324.108, 272.517 321.325, 273.561 318.156 C 274.576 315.074, 283.271 308, 286.044 308 C 286.661 308, 286.933 307.438, 286.648 306.750 C 282.500 296.747, 287.223 290.064, 293.521 297.024 C 294.770 298.404, 295.678 298.722, 296.376 298.024 C 296.939 297.461, 298.435 297, 299.700 297 C 300.965 297, 301.995 296.887, 301.989 296.750 C 301.983 296.613, 301.355 294.447, 300.594 291.939 C 298.403 284.720, 304.894 278.681, 309.169 283.961 C 311.319 286.616, 311.580 286.521, 312.527 282.748 C 313.342 279.503, 312.748 279.441, 301.155 281.557 M 320.536 282.350 C 318.639 283.737, 318.640 284.227, 320.586 298.301 C 320.799 299.841, 320.560 300.846, 320.055 300.534 C 318.277 299.435, 317.799 302.209, 319.017 306.560 C 323.292 321.828, 331.316 305.996, 327.377 290.064 C 325.145 281.032, 324.041 279.787, 320.536 282.350 M 304.250 285.220 C 301.309 286.639, 303.640 299.832, 307.812 305.378 C 308.276 305.995, 309.473 308.750, 310.471 311.500 C 312.676 317.571, 312.368 317.180, 314.351 316.419 C 315.252 316.073, 315.692 315.311, 315.330 314.725 C 314.917 314.057, 315.292 313.898, 316.336 314.299 C 317.251 314.650, 318 314.584, 318 314.153 C 318 310.857, 307.842 283.740, 306.730 284.068 C 306.603 284.105, 305.488 284.624, 304.250 285.220 M 70.459 294.250 C 70.196 294.938, 70.098 321.375, 70.240 353 L 70.500 410.500 91.250 410.770 L 112 411.041 112 352.020 L 112 293 91.469 293 C 75.965 293, 70.820 293.306, 70.459 294.250 M 286 298.752 C 286 301.469, 293.350 313.231, 295.599 314.114 C 296.644 314.524, 296.916 314.891, 296.203 314.930 C 293.988 315.050, 298.247 319.933, 300.597 319.969 C 301.777 319.986, 303.212 319.015, 303.878 317.750 C 304.529 316.512, 304.837 316.288, 304.562 317.250 C 303.969 319.327, 304.843 319.435, 307.282 317.585 C 308.790 316.440, 308.882 315.835, 307.879 313.634 C 306.783 311.228, 306.594 311.164, 305.345 312.767 C 304.068 314.406, 304.028 314.405, 304.607 312.742 C 305.079 311.389, 304.736 311.044, 303.117 311.242 C 301.509 311.439, 299.890 309.850, 296.246 304.500 C 291.250 297.166, 286 294.221, 286 298.752 M 183.307 306.681 L 183.639 312.361 190.569 314.744 C 194.381 316.054, 200.425 317.299, 204 317.510 L 210.500 317.894 205.500 316.543 C 202.750 315.800, 199.488 315.149, 198.250 315.096 C 197.012 315.043, 196 314.501, 196 313.892 C 196 313.194, 194.980 313.020, 193.250 313.422 C 191.377 313.857, 190.949 313.762, 191.907 313.124 C 193.032 312.376, 192.353 311.062, 188.536 306.594 C 182.693 299.754, 182.902 299.751, 183.307 306.681 M 243.520 310.575 C 235.084 314.714, 228.881 315.033, 216.801 311.949 C 209.613 310.114, 206.639 309.972, 208.207 311.540 C 209.507 312.840, 227.046 317.273, 232.500 317.680 C 240.597 318.283, 252 313.494, 252 309.490 C 252 306.405, 252.023 306.402, 243.520 310.575 M 330.778 310.868 C 328.656 311.361, 328.267 311.831, 329.012 313 C 329.539 313.825, 329.948 315.175, 329.921 316 C 329.895 316.825, 329.438 316.411, 328.906 315.080 C 328.168 313.234, 327.662 312.938, 326.770 313.830 C 326.126 314.474, 324.678 315.036, 323.550 315.079 C 322.173 315.132, 321.993 315.320, 323 315.652 C 323.825 315.924, 325.522 316.644, 326.770 317.253 C 328.624 318.157, 329.542 317.986, 331.770 316.323 C 334.106 314.580, 335.922 309.769, 334.113 310.118 C 333.776 310.183, 332.275 310.521, 330.778 310.868 M 285.521 313.976 C 284.514 315.089, 283.140 316, 282.467 316 C 280.796 316, 279.296 317.974, 278.472 321.256 L 277.783 324 286.977 324 L 296.170 324 292.412 318.750 C 290.344 315.863, 288.360 313.152, 288.003 312.726 C 287.645 312.301, 286.529 312.863, 285.521 313.976 M 318.191 317.789 C 316.997 318.582, 314.778 319.351, 313.260 319.498 C 308.890 319.922, 305.352 321.537, 307.222 322.255 C 309.108 322.979, 317 321.086, 317 319.910 C 317 319.444, 317.638 319.308, 318.417 319.607 C 319.197 319.906, 321.063 319.507, 322.565 318.720 L 325.295 317.290 322.829 316.818 C 321.473 316.559, 319.386 316.996, 318.191 317.789 M 353 334.987 L 353 352 389.024 352 L 425.048 352 424.774 335.250 L 424.500 318.500 388.750 318.237 L 353 317.975 353 334.987 M 179 377.500 C 179 386.967, 179.009 387, 181.500 387 C 183.845 387, 184.002 386.675, 184.033 381.750 L 184.065 376.500 187.283 381.719 C 189.884 385.938, 191.026 386.943, 193.250 386.969 L 196 387 196 377.500 C 196 368.033, 195.991 368, 193.500 368 C 191.151 368, 191 368.317, 191 373.248 L 191 378.496 187.773 373.248 C 185.133 368.955, 184.041 368, 181.773 368 L 179 368 179 377.500 M 199 377.500 C 199 386.967, 199.009 387, 201.500 387 C 203.991 387, 204 386.967, 204 377.500 C 204 368.033, 203.991 368, 201.500 368 C 199.009 368, 199 368.033, 199 377.500 M 209.636 370.636 C 203.674 376.598, 207.644 387, 215.881 387 C 220.134 387, 222.549 385.316, 224.084 381.280 C 225.841 376.658, 225.344 376, 220.094 376 C 215.090 376, 213.411 379.216, 217.853 380.292 C 219.288 380.639, 219.257 380.795, 217.614 381.504 C 213.065 383.468, 209.965 376.539, 214.098 373.644 C 215.761 372.479, 216.795 372.355, 218.271 373.145 C 221.368 374.803, 224.314 371.481, 221.559 369.439 C 218.337 367.051, 212.651 367.622, 209.636 370.636 M 227 377.500 C 227 386.967, 227.009 387, 229.500 387 C 231.750 387, 232 386.600, 232 383 C 232 379.400, 232.250 379, 234.500 379 C 236.750 379, 237 379.400, 237 383 C 237 386.600, 237.250 387, 239.500 387 C 241.991 387, 242 386.967, 242 377.500 C 242 368.033, 241.991 368, 239.500 368 C 237.310 368, 237 368.433, 237 371.500 C 237 374.567, 236.690 375, 234.500 375 C 232.310 375, 232 374.567, 232 371.500 C 232 368.433, 231.690 368, 229.500 368 C 227.009 368, 227 368.033, 227 377.500 M 244 370 C 244 371.333, 244.667 372, 246 372 C 247.822 372, 248 372.667, 248 379.500 C 248 386.833, 248.056 387, 250.500 387 C 252.944 387, 253 386.833, 253 379.500 C 253 372.167, 253.056 372, 255.500 372 C 257.333 372, 258 371.467, 258 370 C 258 368.190, 257.333 368, 251 368 C 244.667 368, 244 368.190, 244 370 M 260 377.500 C 260 386.967, 260.009 387, 262.500 387 C 264.690 387, 265 386.567, 265 383.500 C 265 380.333, 265.267 380, 267.800 380 C 271.585 380, 273 378.322, 273 373.835 C 273 369.292, 271.132 368, 264.566 368 L 260 368 260 377.500 M 276 375.845 C 276 385.737, 281.193 390.344, 287.687 386.214 C 291.763 383.623, 292.500 368, 288.546 368 C 286.212 368, 286.077 368.330, 285.796 374.750 C 285.329 385.413, 281 385.702, 281 375.070 C 281 368.195, 280.931 368, 278.500 368 C 276.046 368, 276 368.144, 276 375.845 M 294 377.500 L 294 387 299.500 387 C 304.333 387, 305 386.758, 305 385 C 305 383.444, 304.333 383, 302 383 L 299 383 299 375.500 C 299 368.167, 298.944 368, 296.500 368 C 294.009 368, 294 368.033, 294 377.500 M 310.819 369.205 C 307.318 371.902, 308.438 376.616, 313.224 379.333 C 316.148 380.994, 316.281 381.263, 314.630 382.187 C 313.365 382.895, 312.469 382.869, 311.704 382.104 C 310.116 380.516, 308.312 380.745, 307.590 382.627 C 306.573 385.277, 308.922 387, 313.551 387 C 321.858 387, 323.654 380.530, 316.604 376.002 L 312.708 373.500 316.415 373.186 C 319.581 372.918, 320.077 372.553, 319.811 370.686 C 319.438 368.067, 313.555 367.099, 310.819 369.205 M 324 377.500 L 324 387 329.500 387 C 334.333 387, 335 386.758, 335 385 C 335 383.444, 334.333 383, 332 383 C 329.667 383, 329 382.556, 329 381 C 329 379.444, 329.667 379, 332 379 C 334.333 379, 335 378.556, 335 377 C 335 375.444, 334.333 375, 332 375 C 330 375, 329 374.500, 329 373.500 C 329 372.500, 330 372, 332 372 C 334.333 372, 335 371.556, 335 370 C 335 368.242, 334.333 368, 329.500 368 L 324 368 324 377.500 M 214 405 C 214 408.874, 214.102 408.996, 217.250 408.864 C 219.600 408.765, 219.877 408.608, 218.250 408.294 C 217.012 408.056, 216 407.248, 216 406.500 C 216 405.752, 217.012 404.944, 218.250 404.706 L 220.500 404.272 218.250 404.136 C 217.012 404.061, 216 403.581, 216 403.070 C 216 402.558, 217.012 401.944, 218.250 401.706 C 219.877 401.392, 219.600 401.235, 217.250 401.136 C 214.102 401.004, 214 401.126, 214 405 M 227 403.094 C 227 404.346, 227.803 405.397, 229 405.710 C 230.100 405.998, 231 406.680, 231 407.225 C 231 407.792, 229.894 407.939, 228.416 407.568 C 226.741 407.148, 226.058 407.285, 226.475 407.960 C 226.829 408.532, 228.216 409, 229.559 409 C 232.734 409, 232.844 405.871, 229.750 403.572 L 227.500 401.900 229.750 402.356 C 230.988 402.607, 232 402.405, 232 401.906 C 232 401.408, 230.875 401, 229.500 401 C 227.629 401, 227 401.527, 227 403.094 M 240 404.934 C 240 407.170, 240.436 409, 240.969 409 C 241.501 409, 241.692 408.361, 241.392 407.580 C 241.034 406.645, 241.644 406.046, 243.174 405.830 C 246.672 405.334, 246.331 401.596, 242.750 401.184 C 240.149 400.884, 240 401.087, 240 404.934 M 253.415 402.360 C 252.070 405.867, 253.392 408.500, 256.500 408.500 C 260.900 408.500, 261.127 401.687, 256.744 401.183 C 254.996 400.982, 253.779 401.412, 253.415 402.360 M 268.116 405.250 C 268.180 407.587, 268.438 408.712, 268.689 407.750 C 269.250 405.605, 270.859 405.469, 271.638 407.500 C 273.006 411.064, 273.734 408.154, 273.077 401.750 C 272.705 398.127, 268.012 401.438, 268.116 405.250 M 280.888 401.910 C 281.652 402.393, 282.327 404.185, 282.388 405.892 C 282.541 410.135, 284 409.846, 284 405.573 C 284 403.151, 284.513 402.013, 285.750 401.689 C 286.712 401.438, 285.700 401.187, 283.500 401.131 C 280.844 401.064, 279.966 401.326, 280.888 401.910 M 293.400 402.162 C 292.996 402.816, 293.626 404.088, 294.841 405.072 C 297.545 407.262, 297.615 408.330, 295 407.500 C 293.853 407.136, 293 407.320, 293 407.933 C 293 408.520, 294.350 409, 296 409 C 299.600 409, 300.411 405.182, 297 404.290 C 295.900 404.002, 295 403.321, 295 402.776 C 295 402.232, 295.661 402.040, 296.468 402.349 C 297.275 402.659, 298.202 402.482, 298.527 401.956 C 298.852 401.430, 297.993 401, 296.618 401 C 295.243 401, 293.795 401.523, 293.400 402.162"/><path fill-rule="evenodd" fill="#131213" stroke="none" d="M 0 250.002 L 0 500.004 250.250 499.752 L 500.500 499.500 500.752 249.750 L 501.004 0 250.502 0 L 0 0 0 250.002 M 0.492 250.500 C 0.492 388, 0.608 444.101, 0.750 375.170 C 0.892 306.238, 0.892 193.738, 0.750 125.170 C 0.608 56.601, 0.492 113, 0.492 250.500 M 112 137.014 C 112 139.949, 177.245 139.687, 177.810 136.750 C 178.125 135.112, 176.033 135, 145.073 135 C 112.592 135, 112 135.036, 112 137.014 M 232.907 147.188 C 228.833 150.041, 222.968 154.428, 219.874 156.938 C 216.780 159.447, 210.571 164.362, 206.076 167.859 C 195.135 176.372, 195.711 175.069, 189.377 205.609 C 181.904 241.638, 181.887 241.858, 186.139 245.834 C 189.658 249.124, 220.413 264.011, 223.638 263.985 C 229.206 263.939, 226.980 261.961, 213.705 255.160 C 194.399 245.269, 188.590 241.284, 188.174 237.647 C 187.807 234.442, 187.911 234.341, 199 227.130 C 203.125 224.447, 212.812 216.458, 220.527 209.376 C 248.082 184.082, 247.338 184.256, 265.572 198.886 C 276.303 207.496, 279.268 209.273, 280.181 207.641 C 281.407 205.451, 283 206.477, 283 209.458 C 283 211.393, 284.554 212.600, 291.986 216.439 C 300.806 220.994, 303.694 223.750, 302.608 226.578 C 301.360 229.830, 304.229 227.696, 305.638 224.324 C 308.074 218.494, 306.722 211.481, 303.562 213.551 C 300.299 215.689, 299.676 213.532, 302.110 208.528 C 304.526 203.561, 304.554 203.968, 300.891 190.734 C 296.427 174.606, 295.402 172.932, 294.486 180.269 C 293.828 185.536, 293.994 188.782, 295.616 202.250 C 296.262 207.615, 294.644 208.802, 292.892 204.250 C 288.078 191.747, 286.311 179.204, 288.493 173.019 C 290.336 167.795, 290.887 168.553, 280.480 161.986 C 275.698 158.969, 269.697 154.946, 267.143 153.046 C 250.931 140.984, 243.564 139.724, 232.907 147.188 M 283 149.358 C 283 151.104, 295.522 157.155, 297.098 156.171 C 299.042 154.957, 300.292 155.968, 299.557 158.160 C 299.309 158.897, 300.489 160.593, 302.178 161.929 L 305.248 164.358 304.521 161.929 C 303.823 159.600, 303.854 159.580, 305.285 161.458 C 306.106 162.535, 306.607 163.885, 306.399 164.458 C 305.677 166.447, 309.762 177.649, 310.518 175.750 C 310.901 174.787, 310.946 173.302, 310.618 172.448 C 310.277 171.558, 310.445 171.157, 311.011 171.507 C 311.555 171.843, 312 171.191, 312 170.059 C 312 167.287, 298.535 150.377, 295.729 149.625 C 293.332 148.982, 283 148.766, 283 149.358 M 291.904 170.606 C 288.838 177.334, 288.789 177.665, 289.898 184.370 C 291.429 193.624, 292.688 195.482, 292.201 187.765 C 291.943 183.690, 292.509 178.530, 293.820 173.001 C 296.338 162.384, 295.900 161.837, 291.904 170.606 M 302.568 179 C 303.915 183.818, 304.959 186, 305.916 186 C 307.730 186, 307.722 184.501, 305.887 180.500 C 304.878 178.300, 304.034 177.175, 304.011 178 C 303.974 179.333, 303.853 179.333, 302.919 178 C 302.119 176.857, 302.035 177.095, 302.568 179 M 118 250.500 L 118 318 137.500 318 L 157 318 157 286 C 157 268.301, 157.392 254, 157.878 254 C 158.361 254, 161.398 257.033, 164.628 260.739 C 167.858 264.446, 171.523 268.649, 172.773 270.079 C 174.023 271.510, 175.696 273.540, 176.491 274.590 C 179.127 278.074, 178.050 274.753, 175.004 270.006 C 169.718 261.768, 171.847 246.018, 178.250 246.002 C 178.662 246.001, 179.010 243.188, 179.022 239.750 C 179.034 236.313, 179.929 229.491, 181.013 224.592 L 182.982 215.684 179.262 211.092 C 177.215 208.566, 175.082 206.011, 174.521 205.414 C 173.959 204.817, 169.450 199.536, 164.500 193.679 L 155.500 183.028 136.750 183.014 L 118 183 118 250.500 M 313.001 188.998 C 312.261 192.080, 311.391 193.742, 310.731 193.334 C 310.058 192.918, 309.896 193.286, 310.294 194.324 C 311.658 197.878, 312.180 205.794, 311.175 207.673 C 310.532 208.875, 310.393 212.269, 310.815 216.485 L 311.500 223.343 314.750 219.637 L 318 215.930 318.011 203.715 C 318.017 196.997, 318.301 189.813, 318.642 187.750 C 319.733 181.148, 314.612 182.281, 313.001 188.998 M 323.033 184.750 C 323.696 199.668, 334.778 221.725, 337.709 213.960 C 339.214 209.973, 342.106 210.310, 343.510 214.637 C 344.066 216.349, 345.938 219.074, 347.672 220.693 C 353.815 226.432, 353.090 239.154, 346.372 243.484 C 343.707 245.201, 343.149 246.290, 342.603 250.836 C 341.843 257.165, 340.375 260.250, 335.598 265.555 C 333.645 267.725, 332.036 269.791, 332.023 270.146 C 332.010 270.501, 329.677 272.282, 326.837 274.105 L 321.674 277.418 324.942 278.265 C 329.811 279.526, 332.338 278.843, 332.983 276.090 C 334.625 269.083, 342.658 268.356, 345.260 274.979 L 346.839 279 352.709 279 C 406.174 279, 414.128 194.662, 361.566 185.082 C 354.890 183.865, 322.982 183.590, 323.033 184.750 M 321.669 199.397 C 321.301 202.082, 321 207.496, 321 211.427 L 321 218.575 316.145 223.357 C 311.715 227.721, 310.435 228.357, 301.522 230.620 C 286.766 234.367, 284.831 235.516, 283.194 241.500 C 278.918 257.135, 278.976 257, 276.500 257 C 273.967 257, 271 254.637, 271 252.620 C 271 251.939, 270.354 250.509, 269.564 249.441 C 268.442 247.924, 268.545 249.357, 270.038 256 C 271.089 260.675, 271.960 264.776, 271.974 265.113 C 271.988 265.451, 274.802 266.984, 278.227 268.521 C 281.651 270.058, 286.716 273.455, 289.480 276.070 L 294.507 280.824 304.699 278.960 C 319.268 276.296, 325.770 272.591, 333.454 262.575 C 338.375 256.161, 339.462 253.070, 336.045 255.204 C 333.026 257.090, 332.551 255.562, 333.893 248.279 C 334.923 242.688, 334.900 241.395, 333.755 240.534 C 332.998 239.965, 331.128 238.503, 329.598 237.284 L 326.817 235.068 328.522 229.934 L 330.227 224.800 326.526 210.650 C 324.490 202.867, 322.715 196.053, 322.582 195.507 C 322.448 194.962, 322.037 196.712, 321.669 199.397 M 306.194 202.040 C 306.072 203.636, 305.505 206.171, 304.934 207.673 C 303.905 210.380, 303.914 210.388, 305.948 208.547 C 307.224 207.392, 308 205.448, 308 203.404 C 308 199.269, 306.492 198.130, 306.194 202.040 M 279.609 217.893 C 278.860 223.536, 280.458 227, 283.810 227 C 285.087 227, 285.064 226.728, 283.655 225.171 C 282.745 224.165, 281.968 221.803, 281.930 219.921 C 281.794 213.335, 280.378 212.096, 279.609 217.893 M 340.803 220 C 341.186 222.475, 341.436 227.113, 341.358 230.307 C 341.223 235.826, 341.305 236.034, 343.005 234.495 C 344.661 232.997, 344.688 232.417, 343.373 226.688 C 341.391 218.058, 339.902 214.182, 340.803 220 M 259.535 222.104 C 254.982 226.101, 254.553 232.127, 258.488 236.804 C 261.199 240.025, 264.655 241.460, 265.327 239.644 C 265.635 238.810, 266.109 238.839, 267.075 239.750 C 272.719 245.075, 284.861 233.050, 279.737 227.210 C 278.912 226.270, 277.950 224.556, 277.599 223.402 C 275.990 218.107, 264.988 217.316, 259.535 222.104 M 216.890 222.632 C 215.705 224.061, 216.095 224.749, 220.018 228.149 L 224.500 232.033 220.526 235.394 C 217.063 238.321, 216.725 238.963, 217.898 240.377 C 219.825 242.699, 221.238 242.405, 224.500 239 C 228.051 235.294, 228.355 235.294, 232.304 238.995 C 235.913 242.378, 237.205 242.663, 239.018 240.478 C 240.080 239.198, 239.677 238.433, 236.494 235.681 L 232.706 232.407 236.853 228.858 C 241.361 225, 241.786 223.897, 239.501 222.001 C 238.261 220.972, 237.225 221.394, 233.500 224.446 L 228.999 228.135 226.160 226.114 C 224.600 225.003, 222.745 223.397, 222.039 222.547 C 220.384 220.553, 218.591 220.583, 216.890 222.632 M 262.573 225.336 C 259.344 228.565, 259.308 231.399, 262.455 234.545 C 268.981 241.072, 280.025 233.147, 274.250 226.080 C 271.399 222.592, 265.681 222.228, 262.573 225.336 M 302.340 239.849 C 288.226 251.073, 286.338 255.101, 291.051 263.944 C 300.003 280.740, 309.518 282.328, 308.273 266.818 C 307.537 257.648, 310.068 255.555, 320.687 256.550 C 334.009 257.798, 333.546 250.712, 319.691 241.288 C 310.412 234.976, 308.651 234.830, 302.340 239.849 M 300.086 243.995 C 288.695 253.799, 288.064 255.628, 293.114 264.193 C 301.534 278.474, 307.279 279.569, 306.281 266.703 C 305.566 257.486, 308.874 254.500, 319.801 254.500 C 331.524 254.500, 331.239 251.731, 318.601 242.856 C 309.723 236.621, 308.571 236.692, 300.086 243.995 M 306.899 242.948 C 306.005 247.849, 306.605 249.502, 309.296 249.547 C 312.493 249.601, 313.463 248.599, 313.847 244.847 C 314.094 242.428, 307.332 240.579, 306.899 242.948 M 179.085 251.641 C 173.706 257.751, 173.850 259.620, 180.566 270.932 C 183.627 276.088, 187.895 283.814, 190.051 288.102 C 197.347 302.612, 199.385 303.923, 221.139 308.114 C 235.196 310.822, 242.306 308.429, 263 294.026 C 264.375 293.069, 267.525 291.160, 270 289.784 C 275.896 286.507, 280.605 283.805, 285.399 280.949 L 289.298 278.627 285.408 275.361 C 279.553 270.446, 277.605 270.315, 271.418 274.423 C 267.925 276.742, 263.600 278.487, 258.802 279.514 C 218.233 288.197, 218.185 288.195, 200.863 276.697 C 186.019 266.845, 180.378 258.816, 184.500 253.411 C 187.676 249.248, 187.326 247, 183.503 247 C 183.320 247, 181.332 249.088, 179.085 251.641 M 191.665 254.840 C 186.498 257.963, 186.951 260.763, 193.589 266.732 C 204.082 276.169, 215.358 283.232, 220.757 283.751 C 229.801 284.620, 262.528 277.319, 269.549 272.867 L 274.202 269.916 271.601 267.506 C 270.162 266.173, 269 264, 269 262.644 L 269 260.192 263.989 262.096 C 257.969 264.384, 254.146 264.463, 243.157 262.529 C 234.940 261.083, 234.743 261.097, 230.140 263.429 C 219.077 269.035, 214.871 268.756, 208.500 261.995 C 203.147 256.314, 194.974 252.840, 191.665 254.840 M 294.490 255.016 C 293.880 256.003, 294.655 256.404, 296.472 256.044 C 297.007 255.939, 296.640 256.741, 295.657 257.827 C 293.613 260.085, 294.262 260.727, 298.452 260.594 C 303.100 260.446, 302.960 254.674, 298.299 254.294 C 296.539 254.150, 294.824 254.475, 294.490 255.016 M 338.200 274.200 C 336.504 275.896, 336.703 276.689, 338.972 277.282 C 340.370 277.648, 341.134 278.986, 341.597 281.881 C 341.956 284.126, 342.587 285.755, 342.999 285.500 C 343.746 285.039, 342.752 278.073, 341.464 274.750 C 340.667 272.693, 339.845 272.555, 338.200 274.200 M 335.473 280.044 C 334.332 281.890, 336.115 298.285, 337.325 297.075 C 338.883 295.517, 340.031 295.757, 339.362 297.500 C 339.045 298.325, 338.133 299, 337.334 299 C 336.535 299, 336.141 299.419, 336.457 299.931 C 336.774 300.443, 336.506 301.187, 335.862 301.585 C 335.131 302.037, 334.959 301.876, 335.405 301.155 C 335.797 300.520, 335.679 300, 335.142 300 C 334.606 300, 333.940 300.563, 333.662 301.250 C 333.361 301.997, 333.126 301.795, 333.079 300.750 C 333.036 299.788, 333.450 299, 334 299 C 334.550 299, 335 298.325, 335 297.500 C 335 296.675, 334.197 296, 333.215 296 C 331.699 296, 331.435 296.891, 331.465 301.913 C 331.491 306.369, 331.793 307.583, 332.691 306.840 C 333.345 306.298, 333.640 305.099, 333.346 304.177 C 332.890 302.745, 332.967 302.719, 333.874 304 C 338.100 309.964, 343.565 286.578, 339.488 279.980 C 338.689 278.688, 336.287 278.726, 335.473 280.044 M 301.155 281.557 C 295.950 282.508, 293.322 282.593, 292.133 281.851 C 290.814 281.027, 288.646 281.841, 281.978 285.663 L 273.500 290.522 273.431 296.233 C 273.350 302.855, 272.223 304.493, 264.212 309.632 C 256.900 314.322, 234.621 325.348, 228.193 327.457 C 221.862 329.535, 220.642 333.785, 226.546 333.196 C 229.872 332.864, 235 336.118, 235 338.560 C 235 340.599, 259.519 354.815, 260.809 353.524 C 261.064 353.270, 258.711 350.295, 255.581 346.914 C 248.373 339.129, 248.340 336.831, 255.368 332.500 C 268.987 324.108, 272.517 321.325, 273.561 318.156 C 274.576 315.074, 283.271 308, 286.044 308 C 286.661 308, 286.933 307.438, 286.648 306.750 C 282.500 296.747, 287.223 290.064, 293.521 297.024 C 294.770 298.404, 295.678 298.722, 296.376 298.024 C 296.939 297.461, 298.435 297, 299.700 297 C 300.965 297, 301.995 296.887, 301.989 296.750 C 301.983 296.613, 301.355 294.447, 300.594 291.939 C 298.403 284.720, 304.894 278.681, 309.169 283.961 C 311.319 286.616, 311.580 286.521, 312.527 282.748 C 313.342 279.503, 312.748 279.441, 301.155 281.557 M 320.536 282.350 C 318.639 283.737, 318.640 284.227, 320.586 298.301 C 320.799 299.841, 320.560 300.846, 320.055 300.534 C 318.277 299.435, 317.799 302.209, 319.017 306.560 C 323.292 321.828, 331.316 305.996, 327.377 290.064 C 325.145 281.032, 324.041 279.787, 320.536 282.350 M 304.250 285.220 C 301.309 286.639, 303.640 299.832, 307.812 305.378 C 308.276 305.995, 309.473 308.750, 310.471 311.500 C 312.676 317.571, 312.368 317.180, 314.351 316.419 C 315.252 316.073, 315.692 315.311, 315.330 314.725 C 314.917 314.057, 315.292 313.898, 316.336 314.299 C 317.251 314.650, 318 314.584, 318 314.153 C 318 310.857, 307.842 283.740, 306.730 284.068 C 306.603 284.105, 305.488 284.624, 304.250 285.220 M 70.459 294.250 C 70.196 294.938, 70.098 321.375, 70.240 353 L 70.500 410.500 91.250 410.770 L 112 411.041 112 352.020 L 112 293 91.469 293 C 75.965 293, 70.820 293.306, 70.459 294.250 M 286 298.752 C 286 301.469, 293.350 313.231, 295.599 314.114 C 296.644 314.524, 296.916 314.891, 296.203 314.930 C 293.988 315.050, 298.247 319.933, 300.597 319.969 C 301.777 319.986, 303.212 319.015, 303.878 317.750 C 304.529 316.512, 304.837 316.288, 304.562 317.250 C 303.969 319.327, 304.843 319.435, 307.282 317.585 C 308.790 316.440, 308.882 315.835, 307.879 313.634 C 306.783 311.228, 306.594 311.164, 305.345 312.767 C 304.068 314.406, 304.028 314.405, 304.607 312.742 C 305.079 311.389, 304.736 311.044, 303.117 311.242 C 301.509 311.439, 299.890 309.850, 296.246 304.500 C 291.250 297.166, 286 294.221, 286 298.752 M 183.307 306.681 L 183.639 312.361 190.569 314.744 C 194.381 316.054, 200.425 317.299, 204 317.510 L 210.500 317.894 205.500 316.543 C 202.750 315.800, 199.488 315.149, 198.250 315.096 C 197.012 315.043, 196 314.501, 196 313.892 C 196 313.194, 194.980 313.020, 193.250 313.422 C 191.377 313.857, 190.949 313.762, 191.907 313.124 C 193.032 312.376, 192.353 311.062, 188.536 306.594 C 182.693 299.754, 182.902 299.751, 183.307 306.681 M 243.520 310.575 C 235.084 314.714, 228.881 315.033, 216.801 311.949 C 209.613 310.114, 206.639 309.972, 208.207 311.540 C 209.507 312.840, 227.046 317.273, 232.500 317.680 C 240.597 318.283, 252 313.494, 252 309.490 C 252 306.405, 252.023 306.402, 243.520 310.575 M 330.778 310.868 C 328.656 311.361, 328.267 311.831, 329.012 313 C 329.539 313.825, 329.948 315.175, 329.921 316 C 329.895 316.825, 329.438 316.411, 328.906 315.080 C 328.168 313.234, 327.662 312.938, 326.770 313.830 C 326.126 314.474, 324.678 315.036, 323.550 315.079 C 322.173 315.132, 321.993 315.320, 323 315.652 C 323.825 315.924, 325.522 316.644, 326.770 317.253 C 328.624 318.157, 329.542 317.986, 331.770 316.323 C 334.106 314.580, 335.922 309.769, 334.113 310.118 C 333.776 310.183, 332.275 310.521, 330.778 310.868 M 285.521 313.976 C 284.514 315.089, 283.140 316, 282.467 316 C 280.796 316, 279.296 317.974, 278.472 321.256 L 277.783 324 286.977 324 L 296.170 324 292.412 318.750 C 290.344 315.863, 288.360 313.152, 288.003 312.726 C 287.645 312.301, 286.529 312.863, 285.521 313.976 M 318.191 317.789 C 316.997 318.582, 314.778 319.351, 313.260 319.498 C 308.890 319.922, 305.352 321.537, 307.222 322.255 C 309.108 322.979, 317 321.086, 317 319.910 C 317 319.444, 317.638 319.308, 318.417 319.607 C 319.197 319.906, 321.063 319.507, 322.565 318.720 L 325.295 317.290 322.829 316.818 C 321.473 316.559, 319.386 316.996, 318.191 317.789 M 353 334.987 L 353 352 389.024 352 L 425.048 352 424.774 335.250 L 424.500 318.500 388.750 318.237 L 353 317.975 353 334.987 M 179 377.500 C 179 386.967, 179.009 387, 181.500 387 C 183.845 387, 184.002 386.675, 184.033 381.750 L 184.065 376.500 187.283 381.719 C 189.884 385.938, 191.026 386.943, 193.250 386.969 L 196 387 196 377.500 C 196 368.033, 195.991 368, 193.500 368 C 191.151 368, 191 368.317, 191 373.248 L 191 378.496 187.773 373.248 C 185.133 368.955, 184.041 368, 181.773 368 L 179 368 179 377.500 M 199 377.500 C 199 386.967, 199.009 387, 201.500 387 C 203.991 387, 204 386.967, 204 377.500 C 204 368.033, 203.991 368, 201.500 368 C 199.009 368, 199 368.033, 199 377.500 M 209.636 370.636 C 203.674 376.598, 207.644 387, 215.881 387 C 220.134 387, 222.549 385.316, 224.084 381.280 C 225.841 376.658, 225.344 376, 220.094 376 C 215.090 376, 213.411 379.216, 217.853 380.292 C 219.288 380.639, 219.257 380.795, 217.614 381.504 C 213.065 383.468, 209.965 376.539, 214.098 373.644 C 215.761 372.479, 216.795 372.355, 218.271 373.145 C 221.368 374.803, 224.314 371.481, 221.559 369.439 C 218.337 367.051, 212.651 367.622, 209.636 370.636 M 227 377.500 C 227 386.967, 227.009 387, 229.500 387 C 231.750 387, 232 386.600, 232 383 C 232 379.400, 232.250 379, 234.500 379 C 236.750 379, 237 379.400, 237 383 C 237 386.600, 237.250 387, 239.500 387 C 241.991 387, 242 386.967, 242 377.500 C 242 368.033, 241.991 368, 239.500 368 C 237.310 368, 237 368.433, 237 371.500 C 237 374.567, 236.690 375, 234.500 375 C 232.310 375, 232 374.567, 232 371.500 C 232 368.433, 231.690 368, 229.500 368 C 227.009 368, 227 368.033, 227 377.500 M 244 370 C 244 371.333, 244.667 372, 246 372 C 247.822 372, 248 372.667, 248 379.500 C 248 386.833, 248.056 387, 250.500 387 C 252.944 387, 253 386.833, 253 379.500 C 253 372.167, 253.056 372, 255.500 372 C 257.333 372, 258 371.467, 258 370 C 258 368.190, 257.333 368, 251 368 C 244.667 368, 244 368.190, 244 370 M 260 377.500 C 260 386.967, 260.009 387, 262.500 387 C 264.690 387, 265 386.567, 265 383.500 C 265 380.333, 265.267 380, 267.800 380 C 271.585 380, 273 378.322, 273 373.835 C 273 369.292, 271.132 368, 264.566 368 L 260 368 260 377.500 M 276 375.845 C 276 385.737, 281.193 390.344, 287.687 386.214 C 291.763 383.623, 292.500 368, 288.546 368 C 286.212 368, 286.077 368.330, 285.796 374.750 C 285.329 385.413, 281 385.702, 281 375.070 C 281 368.195, 280.931 368, 278.500 368 C 276.046 368, 276 368.144, 276 375.845 M 294 377.500 L 294 387 299.500 387 C 304.333 387, 305 386.758, 305 385 C 305 383.444, 304.333 383, 302 383 L 299 383 299 375.500 C 299 368.167, 298.944 368, 296.500 368 C 294.009 368, 294 368.033, 294 377.500 M 310.819 369.205 C 307.318 371.902, 308.438 376.616, 313.224 379.333 C 316.148 380.994, 316.281 381.263, 314.630 382.187 C 313.365 382.895, 312.469 382.869, 311.704 382.104 C 310.116 380.516, 308.312 380.745, 307.590 382.627 C 306.573 385.277, 308.922 387, 313.551 387 C 321.858 387, 323.654 380.530, 316.604 376.002 L 312.708 373.500 316.415 373.186 C 319.581 372.918, 320.077 372.553, 319.811 370.686 C 319.438 368.067, 313.555 367.099, 310.819 369.205 M 324 377.500 L 324 387 329.500 387 C 334.333 387, 335 386.758, 335 385 C 335 383.444, 334.333 383, 332 383 C 329.667 383, 329 382.556, 329 381 C 329 379.444, 329.667 379, 332 379 C 334.333 379, 335 378.556, 335 377 C 335 375.444, 334.333 375, 332 375 C 330 375, 329 374.500, 329 373.500 C 329 372.500, 330 372, 332 372 C 334.333 372, 335 371.556, 335 370 C 335 368.242, 334.333 368, 329.500 368 L 324 368 324 377.500 M 214 405 C 214 408.874, 214.102 408.996, 217.250 408.864 C 219.600 408.765, 219.877 408.608, 218.250 408.294 C 217.012 408.056, 216 407.248, 216 406.500 C 216 405.752, 217.012 404.944, 218.250 404.706 L 220.500 404.272 218.250 404.136 C 217.012 404.061, 216 403.581, 216 403.070 C 216 402.558, 217.012 401.944, 218.250 401.706 C 219.877 401.392, 219.600 401.235, 217.250 401.136 C 214.102 401.004, 214 401.126, 214 405 M 227 403.094 C 227 404.346, 227.803 405.397, 229 405.710 C 230.100 405.998, 231 406.680, 231 407.225 C 231 407.792, 229.894 407.939, 228.416 407.568 C 226.741 407.148, 226.058 407.285, 226.475 407.960 C 226.829 408.532, 228.216 409, 229.559 409 C 232.734 409, 232.844 405.871, 229.750 403.572 L 227.500 401.900 229.750 402.356 C 230.988 402.607, 232 402.405, 232 401.906 C 232 401.408, 230.875 401, 229.500 401 C 227.629 401, 227 401.527, 227 403.094 M 240 404.934 C 240 407.170, 240.436 409, 240.969 409 C 241.501 409, 241.692 408.361, 241.392 407.580 C 241.034 406.645, 241.644 406.046, 243.174 405.830 C 246.672 405.334, 246.331 401.596, 242.750 401.184 C 240.149 400.884, 240 401.087, 240 404.934 M 253.415 402.360 C 252.070 405.867, 253.392 408.500, 256.500 408.500 C 260.900 408.500, 261.127 401.687, 256.744 401.183 C 254.996 400.982, 253.779 401.412, 253.415 402.360 M 268.116 405.250 C 268.180 407.587, 268.438 408.712, 268.689 407.750 C 269.250 405.605, 270.859 405.469, 271.638 407.500 C 273.006 411.064, 273.734 408.154, 273.077 401.750 C 272.705 398.127, 268.012 401.438, 268.116 405.250 M 280.888 401.910 C 281.652 402.393, 282.327 404.185, 282.388 405.892 C 282.541 410.135, 284 409.846, 284 405.573 C 284 403.151, 284.513 402.013, 285.750 401.689 C 286.712 401.438, 285.700 401.187, 283.500 401.131 C 280.844 401.064, 279.966 401.326, 280.888 401.910 M 293.400 402.162 C 292.996 402.816, 293.626 404.088, 294.841 405.072 C 297.545 407.262, 297.615 408.330, 295 407.500 C 293.853 407.136, 293 407.320, 293 407.933 C 293 408.520, 294.350 409, 296 409 C 299.600 409, 300.411 405.182, 297 404.290 C 295.900 404.002, 295 403.321, 295 402.776 C 295 402.232, 295.661 402.040, 296.468 402.349 C 297.275 402.659, 298.202 402.482, 298.527 401.956 C 298.852 401.430, 297.993 401, 296.618 401 C 295.243 401, 293.795 401.523, 293.400 402.162"/></svg>